<svg xmlns="http://www.w3.org/2000/svg" viewBox="132 125 342 258" preserveAspectRatio="xMidYMid meet">
  <g transform="translate(0,600) scale(0.1,-0.1)" fill="#000000" stroke="none">
    <path d="M2686 4649 c-439 -64 -736 -365 -736 -747 l0 -85 -110 -169 c-139 -212 -140 -227 -16 -258 37 -9 67 -20 67 -23 0 -4 -3 -28 -7 -53 -6 -40 -3 -49 19 -72 18 -19 23 -33 17 -47 -10 -27 -2 -49 25 -75 20 -19 22 -28 17 -89 -7 -109 24 -155 88 -126 l39 17 -21 29 c-19 25 -20 37 -15 103 6 71 5 77 -19 106 -29 33 -19 61 27 75 31 10 22 20 -37 44 -43 18 -54 27 -48 40 3 9 9 37 11 63 6 54 -11 67 -104 83 -24 4 -43 10 -43 14 0 4 36 60 81 126 130 191 128 187 122 280 -7 100 12 178 68 295 170 348 728 498 1110 299 105 -55 198 -142 261 -245 l51 -84 31 20 c40 26 37 46 -17 130 -174 269 -501 401 -861 349z"/>
    <path d="M4075 4585 c-83 -32 -129 -104 -123 -195 l3 -58 -150 -97 c-83 -53 -172 -113 -199 -132 l-49 -35 -47 22 c-125 59 -265 -12 -278 -139 -7 -72 5 -117 41 -158 80 -91 200 -94 291 -8 l29 27 181 -54 181 -54 17 -64 c60 -230 388 -193 388 43 0 78 -86 187 -147 187 -10 0 -13 25 -13 109 0 59 -3 135 -6 167 l-6 59 46 22 c95 46 134 169 84 263 -45 84 -157 127 -243 95z m110 -89 c70 -30 86 -117 31 -172 -99 -99 -241 46 -148 150 33 36 67 43 117 22z m-156 -255 c15 -11 39 -23 54 -26 l27 -7 0 -169 0 -169 -24 -6 c-13 -3 -40 -23 -61 -44 l-37 -38 -106 34 c-59 19 -142 44 -184 56 -73 20 -78 23 -78 49 0 15 -4 39 -9 52 -9 23 -1 30 180 147 104 67 191 126 195 131 7 13 12 12 43 -10z m-563 -227 c90 -43 78 -174 -18 -198 -128 -32 -185 154 -63 204 30 13 43 12 81 -6z m751 -244 c70 -42 63 -154 -11 -185 -93 -39 -184 56 -139 145 31 59 92 76 150 40z"/>
    <path d="M2649 4345 c-39 -21 -59 -59 -59 -109 0 -39 -4 -48 -32 -67 -18 -13 -66 -49 -105 -80 -68 -54 -74 -57 -107 -48 -107 29 -195 -92 -136 -188 30 -50 79 -67 142 -50 23 6 39 -3 121 -68 94 -74 94 -74 99 -126 4 -39 12 -58 35 -81 82 -82 221 -16 210 100 -5 42 -4 43 71 111 68 62 79 68 104 61 70 -21 138 30 145 107 7 84 -43 139 -125 136 -44 -2 -49 1 -117 65 -69 66 -70 67 -67 113 8 106 -89 173 -179 124z m61 -228 c19 0 42 2 50 4 22 6 152 -134 144 -155 -9 -24 -468 -20 -471 4 -3 26 187 161 217 153 14 -4 41 -7 60 -6z m194 -244 c9 -22 -132 -155 -154 -146 -32 13 -82 15 -109 3 -27 -11 -33 -7 -119 57 -138 103 -138 103 142 103 211 0 235 -2 240 -17z"/>
    <path d="M3567 3695 c-15 -14 -27 -31 -27 -38 0 -7 -13 -39 -29 -73 -28 -60 -39 -76 -161 -249 -56 -78 -61 -89 -51 -113 5 -15 11 -40 13 -55 7 -65 283 350 322 482 22 75 -11 97 -67 46z"/>
    <path d="M2983 3353 c-13 -12 -54 -121 -112 -300 -51 -156 -93 -283 -95 -283 -2 0 -36 74 -77 165 -40 91 -76 165 -80 165 -9 0 -128 -161 -184 -248 -44 -68 -49 -70 -103 -43 -54 27 -84 32 -123 20 -24 -7 -751 -99 -787 -99 -2 0 -1 -4 2 -9 3 -5 191 -12 418 -16 l413 -7 77 -30 c103 -41 116 -35 186 82 78 130 70 132 142 -32 68 -155 77 -168 127 -168 50 0 57 14 145 281 44 134 84 248 88 252 4 5 17 -20 28 -55 11 -34 69 -214 127 -398 59 -184 112 -345 117 -357 24 -50 107 -50 128 -1 5 13 43 138 84 278 41 140 84 284 94 320 l19 65 13 -30 c7 -16 32 -85 55 -153 48 -137 65 -162 107 -162 37 0 62 27 116 124 l43 78 60 -57 c56 -53 63 -57 97 -52 20 3 150 11 287 18 233 11 302 21 244 33 -27 6 -373 52 -459 62 -54 6 -56 7 -151 107 l-96 101 -59 -99 c-32 -54 -63 -96 -69 -95 -5 2 -50 113 -100 246 -49 134 -93 244 -96 244 -9 0 -193 -582 -239 -759 -16 -60 -20 -52 -88 169 -206 671 -202 660 -257 660 -13 0 -32 -8 -42 -17z"/>
  </g>
</svg>
